<svg id="svg" version="1.1" xmlns="http://www.w3.org/2000/svg" xmlns:xlink="http://www.w3.org/1999/xlink" width="400" height="400" viewBox="0, 0, 400,400"><g id="svgg"><path id="path0" d="M179.600 90.892 L 179.600 107.584 197.992 107.692 L 216.384 107.800 216.492 91.000 L 216.600 74.200 198.100 74.200 L 179.600 74.200 179.600 90.892 M92.400 131.788 L 92.400 147.984 110.605 148.092 L 128.809 148.200 128.705 132.000 L 128.600 115.800 110.500 115.696 L 92.400 115.592 92.400 131.788 M136.267 115.867 C 136.120 116.013,136.000 123.303,136.000 132.067 L 136.000 148.000 154.200 148.000 L 172.400 148.000 172.400 131.800 L 172.400 115.600 154.467 115.600 C 144.603 115.600,136.413 115.720,136.267 115.867 M179.600 131.792 L 179.600 147.984 198.000 148.092 L 216.400 148.200 216.400 131.900 L 216.400 115.600 198.000 115.600 L 179.600 115.600 179.600 131.792 M300.046 126.100 C 300.176 126.909,299.558 128.000,298.970 128.000 C 298.670 128.000,298.520 128.248,298.637 128.552 C 298.753 128.855,298.394 129.461,297.838 129.899 C 297.282 130.336,296.936 130.803,297.069 130.936 C 297.289 131.156,295.446 133.916,294.753 134.404 C 294.594 134.516,294.340 135.101,294.188 135.704 C 294.037 136.307,293.773 136.800,293.601 136.800 C 293.224 136.800,291.410 140.454,291.541 140.950 C 291.592 141.143,291.338 141.626,290.978 142.025 C 290.617 142.423,290.432 142.928,290.567 143.147 C 290.702 143.366,290.630 143.658,290.407 143.796 C 290.183 143.934,290.000 144.472,290.000 144.990 C 290.000 145.509,289.822 145.993,289.603 146.067 C 289.385 146.140,289.166 146.695,289.116 147.300 C 289.066 147.905,288.885 148.400,288.713 148.400 C 288.541 148.400,288.400 148.745,288.400 149.167 C 288.400 150.182,287.982 151.236,287.658 151.036 C 287.516 150.948,287.369 151.804,287.331 152.938 C 287.142 158.586,286.608 162.576,286.084 162.252 C 285.751 162.046,286.181 168.682,286.560 169.600 C 286.696 169.930,286.895 171.280,287.002 172.600 C 287.293 176.200,287.605 178.109,288.051 179.022 C 288.271 179.474,288.395 180.014,288.326 180.222 C 288.257 180.430,288.733 181.770,289.385 183.200 C 290.036 184.630,290.527 185.946,290.476 186.124 C 290.346 186.581,291.701 188.800,292.110 188.800 C 292.295 188.800,292.345 188.965,292.220 189.168 C 292.095 189.370,292.264 189.807,292.596 190.139 C 293.401 190.944,293.379 192.400,292.562 192.400 C 292.211 192.400,291.446 192.724,290.862 193.121 C 290.278 193.518,289.400 193.812,288.910 193.776 C 288.421 193.740,288.118 193.867,288.236 194.058 C 288.354 194.249,288.124 194.508,287.725 194.632 C 287.326 194.757,286.727 195.000,286.394 195.174 C 286.060 195.348,285.206 195.426,284.495 195.348 C 283.622 195.253,283.234 195.368,283.301 195.703 C 283.361 196.005,282.923 196.216,282.186 196.240 C 281.518 196.262,280.528 196.516,279.986 196.805 C 279.047 197.306,279.028 197.295,279.593 196.565 C 280.169 195.822,280.162 195.820,279.343 196.517 C 278.823 196.959,278.106 197.162,277.473 197.048 C 276.909 196.945,276.257 197.091,276.024 197.371 C 275.711 197.748,274.476 197.835,271.300 197.704 C 268.935 197.607,211.920 197.499,144.600 197.464 L 22.200 197.400 21.957 199.941 C 21.823 201.339,21.553 202.599,21.357 202.741 C 21.161 202.883,20.990 205.160,20.977 207.800 C 20.964 210.440,20.914 213.140,20.866 213.800 C 20.818 214.460,20.863 216.440,20.968 218.200 C 21.072 219.960,21.198 222.750,21.249 224.400 C 21.299 226.050,21.493 227.711,21.679 228.091 C 21.950 228.643,21.876 228.733,21.309 228.537 C 20.644 228.308,20.642 228.327,21.284 228.846 C 21.728 229.205,22.001 230.077,22.060 231.323 C 22.111 232.381,22.310 233.344,22.504 233.464 C 22.697 233.584,22.810 234.338,22.754 235.141 C 22.699 235.943,22.876 237.012,23.149 237.515 C 23.421 238.018,23.544 238.748,23.420 239.136 C 23.297 239.524,23.461 240.193,23.785 240.621 C 24.109 241.049,24.380 242.165,24.387 243.100 C 24.394 244.035,24.562 244.800,24.760 244.800 C 24.958 244.800,25.083 245.334,25.038 245.987 C 24.993 246.640,25.170 247.256,25.431 247.356 C 25.896 247.535,26.412 249.718,26.410 251.500 C 26.409 252.031,26.653 252.400,27.004 252.400 C 27.369 252.400,27.600 252.778,27.600 253.376 C 27.600 253.913,27.780 254.464,28.000 254.600 C 28.220 254.736,28.400 255.287,28.400 255.824 C 28.400 256.361,28.564 256.800,28.765 256.800 C 28.965 256.800,29.078 257.115,29.016 257.500 C 28.954 257.885,29.102 258.449,29.345 258.754 C 29.589 259.059,29.808 259.509,29.833 259.754 C 29.858 259.999,29.906 260.526,29.939 260.924 C 29.976 261.361,30.183 261.534,30.462 261.362 C 30.762 261.176,30.814 261.253,30.611 261.583 C 30.438 261.862,30.456 262.204,30.649 262.345 C 31.176 262.728,33.188 266.686,33.330 267.622 C 33.399 268.071,33.743 268.775,34.095 269.185 C 34.446 269.596,34.629 270.038,34.500 270.166 C 34.372 270.295,34.477 270.400,34.733 270.400 C 34.990 270.400,35.200 270.577,35.200 270.793 C 35.200 271.009,35.920 272.362,36.800 273.800 C 37.680 275.238,38.400 276.591,38.400 276.807 C 38.400 277.023,38.558 277.200,38.751 277.200 C 38.945 277.200,39.327 277.740,39.600 278.400 C 39.873 279.060,40.233 279.600,40.400 279.600 C 40.567 279.600,40.927 280.140,41.200 280.800 C 41.473 281.460,41.816 282.000,41.962 282.000 C 42.108 282.000,42.565 282.585,42.977 283.300 C 43.725 284.596,44.030 284.994,45.581 286.700 C 46.032 287.195,46.400 287.742,46.400 287.916 C 46.400 288.091,47.075 288.869,47.900 289.647 C 48.725 290.424,50.815 292.532,52.545 294.330 C 54.274 296.129,55.774 297.600,55.878 297.600 C 55.982 297.600,56.679 298.230,57.426 299.000 C 58.174 299.770,58.969 300.400,59.193 300.400 C 59.417 300.400,59.600 300.650,59.600 300.957 C 59.600 301.263,60.050 301.626,60.600 301.764 C 61.150 301.902,61.600 302.192,61.600 302.408 C 61.600 302.623,61.870 302.800,62.200 302.800 C 62.530 302.800,62.800 303.070,62.800 303.400 C 62.800 303.730,62.935 303.971,63.100 303.936 C 63.629 303.824,64.802 304.474,64.615 304.775 C 64.516 304.936,64.663 305.067,64.941 305.067 C 65.506 305.067,70.210 308.169,70.599 308.798 C 70.735 309.019,71.202 309.200,71.636 309.200 C 72.070 309.200,72.529 309.470,72.655 309.800 C 72.782 310.130,73.066 310.400,73.287 310.400 C 74.212 310.400,81.456 314.125,82.091 314.927 C 82.471 315.407,82.786 315.575,82.791 315.300 C 82.796 315.025,82.991 314.800,83.224 314.800 C 83.457 314.800,83.522 315.003,83.368 315.252 C 83.198 315.527,83.306 315.628,83.644 315.510 C 83.950 315.404,85.145 315.730,86.300 316.236 C 87.455 316.742,88.400 317.070,88.400 316.964 C 88.400 316.858,88.805 316.995,89.300 317.267 C 89.795 317.539,90.452 317.803,90.760 317.854 C 91.068 317.905,91.470 318.184,91.654 318.473 C 91.837 318.763,92.003 318.820,92.022 318.600 C 92.041 318.380,92.211 318.560,92.400 319.000 C 92.720 319.744,92.746 319.748,92.772 319.051 C 92.795 318.431,92.904 318.388,93.400 318.800 C 93.730 319.074,94.495 319.346,95.100 319.405 C 95.705 319.464,96.695 319.708,97.300 319.946 C 97.905 320.185,98.400 320.288,98.400 320.176 C 98.400 320.064,98.785 320.178,99.255 320.430 C 99.725 320.681,100.670 320.975,101.355 321.083 C 102.040 321.191,102.870 321.417,103.200 321.585 C 103.530 321.753,104.205 321.855,104.700 321.812 C 105.195 321.769,105.600 321.845,105.600 321.982 C 105.600 322.257,106.825 322.470,108.500 322.484 C 109.105 322.489,109.600 322.614,109.600 322.762 C 109.600 323.058,111.437 323.300,113.600 323.289 C 114.370 323.284,115.214 323.456,115.475 323.669 C 115.736 323.882,117.086 324.070,118.475 324.086 C 119.864 324.102,121.415 324.268,121.923 324.456 C 122.431 324.644,126.031 324.889,129.923 325.001 C 134.071 325.120,137.055 325.369,137.133 325.602 C 137.318 326.154,142.400 326.120,142.400 325.567 C 142.400 325.285,143.377 325.181,145.201 325.267 C 146.741 325.340,148.001 325.296,148.001 325.168 C 148.000 325.040,150.790 324.950,154.200 324.968 C 157.610 324.986,160.400 324.846,160.400 324.657 C 160.400 324.469,160.670 324.418,161.000 324.545 C 161.330 324.671,161.600 324.604,161.600 324.394 C 161.600 324.185,162.532 324.071,163.671 324.140 C 164.810 324.210,166.475 324.101,167.371 323.898 C 168.267 323.695,170.145 323.466,171.544 323.390 C 172.943 323.314,174.383 323.130,174.744 322.981 C 175.105 322.832,176.339 322.651,177.486 322.577 C 178.633 322.503,179.893 322.276,180.286 322.072 C 180.679 321.867,181.540 321.727,182.200 321.761 C 182.860 321.794,183.850 321.662,184.400 321.467 C 184.950 321.272,186.039 321.067,186.821 321.013 C 187.602 320.958,188.603 320.720,189.044 320.483 C 189.486 320.247,190.369 320.111,191.008 320.181 C 191.646 320.251,192.535 320.090,192.984 319.822 C 193.433 319.555,194.250 319.374,194.800 319.421 C 195.350 319.467,195.918 319.318,196.063 319.089 C 196.207 318.860,196.972 318.657,197.763 318.637 C 198.553 318.617,199.200 318.455,199.200 318.277 C 199.200 318.099,199.380 318.064,199.600 318.200 C 199.820 318.336,200.000 318.242,200.000 317.990 C 200.000 317.739,200.225 317.609,200.500 317.702 C 200.775 317.795,201.562 317.637,202.249 317.351 C 202.936 317.066,203.607 316.940,203.740 317.073 C 203.872 317.205,204.247 317.093,204.573 316.823 C 204.898 316.552,205.340 316.440,205.555 316.572 C 205.769 316.705,206.047 316.647,206.173 316.444 C 206.298 316.241,206.761 316.169,207.200 316.284 C 207.647 316.401,208.000 316.296,208.000 316.047 C 208.000 315.801,208.414 315.600,208.920 315.600 C 209.426 315.600,210.015 315.425,210.229 315.211 C 210.442 314.998,210.973 314.755,211.409 314.672 C 211.844 314.588,212.470 314.412,212.800 314.280 C 214.379 313.648,219.676 312.000,220.128 312.000 C 220.410 312.000,220.850 311.790,221.107 311.533 C 221.727 310.913,224.355 310.014,225.567 310.006 C 226.098 310.003,226.416 309.883,226.273 309.739 C 225.836 309.302,228.068 308.368,228.911 308.635 C 229.402 308.791,229.604 308.730,229.446 308.474 C 229.165 308.020,231.504 306.693,232.021 307.013 C 232.199 307.123,232.458 307.030,232.597 306.805 C 232.928 306.270,236.470 304.620,237.054 304.729 C 237.304 304.776,237.613 304.544,237.739 304.214 C 237.866 303.884,238.223 303.711,238.533 303.830 C 238.843 303.949,239.203 303.769,239.333 303.430 C 239.463 303.091,239.823 302.911,240.133 303.030 C 240.443 303.149,240.809 302.954,240.946 302.598 C 241.082 302.241,241.363 302.054,241.570 302.181 C 241.776 302.309,242.063 302.221,242.208 301.987 C 242.391 301.691,242.643 301.704,243.036 302.030 C 243.487 302.404,243.600 302.348,243.601 301.749 C 243.601 301.230,244.428 300.571,246.301 299.600 C 247.785 298.830,249.090 298.091,249.200 297.958 C 249.454 297.651,254.702 294.422,255.897 293.838 C 256.390 293.597,256.795 293.265,256.797 293.100 C 256.799 292.935,257.025 292.800,257.300 292.799 C 257.575 292.799,258.419 292.269,259.176 291.622 C 259.932 290.976,260.697 290.537,260.876 290.647 C 261.054 290.757,261.200 290.657,261.200 290.424 C 261.200 290.191,261.407 290.000,261.660 290.000 C 261.912 290.000,262.731 289.370,263.479 288.600 C 264.227 287.830,265.100 287.200,265.419 287.200 C 265.739 287.200,266.000 287.023,266.000 286.806 C 266.000 286.589,266.765 285.914,267.700 285.306 C 268.635 284.698,269.728 283.795,270.129 283.300 C 270.530 282.805,271.012 282.400,271.201 282.400 C 271.389 282.400,272.231 281.748,273.072 280.951 C 275.311 278.829,277.693 276.962,278.557 276.652 C 278.974 276.503,279.210 276.276,279.081 276.148 C 278.724 275.791,280.753 273.924,281.199 274.199 C 281.422 274.337,281.488 274.173,281.351 273.816 C 281.170 273.345,281.286 273.258,281.821 273.463 C 282.305 273.649,282.440 273.588,282.244 273.271 C 281.949 272.793,282.882 271.705,285.000 270.060 C 285.660 269.547,286.173 269.009,286.140 268.864 C 286.107 268.719,286.242 268.645,286.440 268.700 C 286.638 268.755,286.755 268.575,286.700 268.300 C 286.645 268.025,286.825 267.845,287.100 267.900 C 287.375 267.955,287.555 267.861,287.500 267.692 C 287.445 267.523,287.895 266.850,288.500 266.196 C 289.105 265.543,289.600 264.871,289.600 264.704 C 289.600 264.537,289.881 264.400,290.224 264.400 C 290.567 264.400,290.754 264.249,290.639 264.063 C 290.525 263.878,291.201 262.933,292.142 261.963 C 293.083 260.994,294.021 259.911,294.226 259.558 C 294.727 258.698,297.160 255.702,298.394 254.427 C 298.940 253.862,299.351 253.284,299.308 253.143 C 299.264 253.002,299.627 252.452,300.114 251.922 C 300.601 251.391,301.270 250.443,301.600 249.816 C 301.930 249.188,302.513 248.592,302.896 248.492 C 303.278 248.391,303.492 248.150,303.372 247.955 C 303.251 247.760,303.343 247.600,303.576 247.600 C 303.809 247.600,304.000 247.283,304.000 246.896 C 304.000 246.509,304.360 245.968,304.800 245.693 C 305.240 245.418,305.600 244.952,305.600 244.658 C 305.600 244.363,305.965 243.702,306.411 243.187 C 306.857 242.673,307.326 241.836,307.454 241.326 C 307.582 240.817,307.847 240.400,308.043 240.400 C 308.240 240.400,308.400 240.136,308.400 239.814 C 308.400 239.492,308.735 239.049,309.145 238.829 C 309.555 238.610,310.078 237.929,310.308 237.315 C 310.537 236.702,310.828 235.930,310.954 235.600 C 311.080 235.270,311.637 234.280,312.192 233.400 C 312.747 232.520,313.398 231.305,313.640 230.700 C 313.881 230.095,314.241 229.600,314.439 229.600 C 314.638 229.600,314.779 229.465,314.753 229.300 C 314.627 228.503,314.840 227.978,315.200 228.200 C 315.421 228.336,315.600 228.050,315.600 227.561 C 315.600 227.074,316.059 226.074,316.620 225.338 C 317.182 224.602,317.514 224.000,317.358 224.000 C 317.203 224.000,317.374 223.670,317.739 223.268 C 318.103 222.865,318.281 222.415,318.134 222.268 C 317.987 222.120,318.085 222.000,318.351 222.000 C 318.617 222.000,318.808 221.775,318.774 221.500 C 318.679 220.718,319.255 219.200,319.647 219.200 C 319.841 219.200,320.000 218.888,320.000 218.506 C 320.000 217.754,322.024 213.480,322.478 213.274 C 322.630 213.205,322.656 212.890,322.535 212.574 C 322.414 212.258,322.514 212.000,322.757 212.000 C 323.001 212.000,323.155 211.775,323.100 211.500 C 323.025 211.124,324.211 210.986,327.867 210.942 C 330.544 210.910,333.334 210.698,334.067 210.471 C 334.800 210.244,336.523 210.090,337.896 210.129 C 339.603 210.178,340.453 210.039,340.587 209.691 C 340.771 209.210,342.608 209.275,343.113 209.780 C 343.231 209.898,343.565 209.656,343.855 209.242 C 344.310 208.594,345.708 208.156,348.000 207.946 C 348.330 207.916,348.843 207.699,349.139 207.464 C 349.435 207.229,350.051 206.980,350.508 206.911 C 350.964 206.841,351.568 206.592,351.851 206.358 C 352.134 206.123,352.534 206.036,352.741 206.163 C 352.947 206.291,353.222 206.119,353.352 205.780 C 353.532 205.311,353.768 205.262,354.348 205.572 C 354.962 205.901,355.097 205.846,355.054 205.289 C 355.020 204.858,355.245 204.640,355.654 204.707 C 356.014 204.766,356.418 204.530,356.552 204.182 C 356.685 203.834,356.976 203.661,357.197 203.798 C 357.419 203.935,357.600 203.885,357.600 203.688 C 357.600 203.293,359.609 202.215,360.117 202.336 C 360.292 202.378,361.200 201.644,362.136 200.706 C 363.072 199.768,364.549 198.366,365.419 197.591 C 366.288 196.815,367.720 195.285,368.600 194.191 C 369.480 193.096,370.335 192.140,370.500 192.067 C 370.665 191.993,370.800 191.673,370.800 191.354 C 370.800 191.036,371.069 190.672,371.398 190.546 C 371.726 190.419,371.896 190.155,371.774 189.958 C 371.652 189.761,371.699 189.600,371.877 189.600 C 372.055 189.600,372.647 188.745,373.191 187.700 C 373.735 186.655,374.307 185.707,374.462 185.594 C 375.822 184.598,379.696 174.999,378.420 175.788 C 378.244 175.896,377.666 175.583,377.135 175.093 C 376.604 174.602,375.671 173.974,375.062 173.698 C 374.384 173.391,374.067 173.016,374.243 172.730 C 374.438 172.416,374.310 172.349,373.850 172.525 C 373.429 172.687,373.083 172.561,372.943 172.196 C 372.818 171.871,372.555 171.704,372.358 171.826 C 372.161 171.948,372.000 171.786,372.000 171.466 C 372.000 171.147,371.721 170.778,371.379 170.647 C 370.964 170.488,370.857 170.568,371.055 170.889 C 371.218 171.152,370.677 170.970,369.853 170.484 C 369.029 169.998,368.075 169.600,367.734 169.600 C 367.326 169.600,367.200 169.378,367.364 168.949 C 367.574 168.403,367.409 168.338,366.350 168.550 C 365.612 168.698,364.855 168.612,364.533 168.344 C 364.229 168.092,363.872 167.994,363.740 168.127 C 363.607 168.260,362.977 168.098,362.340 167.769 C 361.702 167.439,360.960 167.198,360.690 167.232 C 359.597 167.372,358.364 167.182,358.538 166.900 C 358.640 166.735,357.796 166.608,356.662 166.617 C 354.050 166.640,352.750 166.405,353.024 165.962 C 353.142 165.771,352.237 165.710,351.014 165.826 C 349.241 165.994,348.741 165.911,348.552 165.418 C 348.232 164.585,344.939 164.592,343.260 165.430 C 342.328 165.895,341.263 166.008,339.195 165.863 C 337.543 165.747,336.486 165.816,336.620 166.033 C 336.745 166.235,336.792 166.411,336.724 166.425 C 336.656 166.439,335.201 166.542,333.491 166.654 L 330.383 166.858 330.411 165.729 C 330.451 164.122,330.162 162.029,329.858 161.725 C 329.420 161.287,329.573 160.736,330.052 161.032 C 330.329 161.203,330.426 161.096,330.302 160.756 C 330.191 160.450,329.904 160.243,329.664 160.295 C 329.152 160.407,328.224 157.407,328.363 156.090 C 328.421 155.547,328.265 155.224,327.975 155.290 C 327.709 155.351,327.339 154.860,327.154 154.200 C 326.735 152.707,325.512 150.400,325.141 150.400 C 324.988 150.400,324.749 149.877,324.608 149.237 C 324.468 148.597,323.725 147.427,322.957 146.637 C 322.190 145.847,321.660 145.200,321.781 145.200 C 321.901 145.200,321.685 144.867,321.300 144.460 C 320.066 143.156,319.200 142.000,319.458 142.000 C 319.595 142.000,319.232 141.626,318.650 141.168 C 318.061 140.704,317.711 140.129,317.860 139.868 C 318.008 139.611,317.975 139.540,317.787 139.710 C 317.442 140.024,313.200 136.117,313.200 135.485 C 313.200 135.015,312.307 134.228,311.590 134.067 C 311.266 133.994,310.706 133.634,310.346 133.267 C 309.987 132.900,309.106 132.150,308.389 131.600 C 307.672 131.050,306.768 130.303,306.382 129.939 C 305.995 129.576,305.301 129.159,304.839 129.012 C 304.377 128.866,303.810 128.393,303.580 127.962 C 303.349 127.530,302.978 127.290,302.755 127.428 C 302.257 127.736,300.736 126.427,301.033 125.947 C 301.151 125.756,300.959 125.600,300.606 125.600 C 300.253 125.600,300.001 125.825,300.046 126.100 M48.595 155.933 C 48.708 156.226,48.800 163.557,48.800 172.225 L 48.800 187.984 67.000 188.092 L 85.200 188.200 85.195 172.800 C 85.192 164.330,85.081 156.999,84.950 156.508 L 84.711 155.616 66.551 155.508 C 51.559 155.419,48.427 155.493,48.595 155.933 M136.013 171.700 L 135.976 188.000 154.188 188.000 L 172.400 188.000 172.400 171.808 L 172.400 155.616 154.225 155.508 L 136.050 155.400 136.013 171.700 M242.400 155.594 L 224.600 155.800 224.495 171.900 L 224.391 188.000 242.411 188.000 L 260.431 188.000 260.382 171.600 C 260.355 162.580,260.303 155.242,260.267 155.294 C 260.230 155.345,252.190 155.480,242.400 155.594 M92.400 171.800 L 92.400 188.000 110.367 188.000 C 124.366 188.000,128.378 188.110,128.535 188.500 C 128.646 188.775,128.751 181.770,128.768 172.933 C 128.786 164.096,128.691 156.581,128.557 156.233 C 128.341 155.669,126.363 155.600,110.357 155.600 L 92.400 155.600 92.400 171.800 M179.600 172.188 L 179.600 187.984 198.005 188.092 L 216.409 188.200 216.305 172.400 L 216.200 156.600 197.900 156.496 L 179.600 156.392 179.600 172.188 " stroke="none" fill="#0c9cec" fill-rule="evenodd"></path><path id="path1" d="M179.471 73.463 C 179.322 73.612,179.200 81.623,179.200 91.267 L 179.200 108.800 198.404 108.800 L 217.608 108.800 217.504 91.100 L 217.400 73.400 198.571 73.296 C 188.214 73.239,179.619 73.314,179.471 73.463 M216.492 91.000 L 216.384 107.800 197.992 107.692 L 179.600 107.584 179.600 90.892 L 179.600 74.200 198.100 74.200 L 216.600 74.200 216.492 91.000 M91.200 132.000 L 91.200 149.600 110.600 149.600 L 130.000 149.600 130.000 132.000 L 130.000 114.400 110.600 114.400 L 91.200 114.400 91.200 132.000 M134.800 132.000 L 134.800 149.608 154.300 149.504 L 173.800 149.400 173.800 132.000 L 173.800 114.600 154.300 114.496 L 134.800 114.392 134.800 132.000 M179.200 132.000 L 179.200 149.600 198.400 149.600 L 217.600 149.600 217.600 132.000 L 217.600 114.400 198.400 114.400 L 179.200 114.400 179.200 132.000 M128.705 132.000 L 128.809 148.200 110.605 148.092 L 92.400 147.984 92.400 131.788 L 92.400 115.592 110.500 115.696 L 128.600 115.800 128.705 132.000 M172.400 131.800 L 172.400 148.000 154.200 148.000 L 136.000 148.000 136.000 132.067 C 136.000 123.303,136.120 116.013,136.267 115.867 C 136.413 115.720,144.603 115.600,154.467 115.600 L 172.400 115.600 172.400 131.800 M216.400 131.900 L 216.400 148.200 198.000 148.092 L 179.600 147.984 179.600 131.792 L 179.600 115.600 198.000 115.600 L 216.400 115.600 216.400 131.900 M298.872 125.803 C 298.392 126.355,298.000 126.985,298.000 127.203 C 298.000 127.421,297.850 127.600,297.668 127.600 C 297.485 127.600,297.080 128.095,296.768 128.700 C 296.455 129.305,295.885 130.149,295.500 130.575 C 295.115 131.002,294.800 131.587,294.800 131.875 C 294.800 132.164,294.665 132.400,294.499 132.400 C 294.039 132.400,291.200 138.131,291.200 139.061 C 291.200 139.358,291.020 139.600,290.800 139.600 C 290.580 139.600,290.400 139.960,290.400 140.400 C 290.400 140.840,290.199 141.200,289.953 141.200 C 289.694 141.200,289.586 141.614,289.696 142.188 C 289.799 142.731,289.729 143.080,289.539 142.963 C 289.350 142.845,289.092 143.076,288.968 143.475 C 288.843 143.874,288.575 144.513,288.371 144.895 C 288.167 145.277,288.000 146.132,288.000 146.795 C 288.000 147.458,287.801 148.000,287.558 148.000 C 287.286 148.000,287.173 148.596,287.264 149.551 C 287.377 150.738,287.284 151.053,286.866 150.893 C 286.434 150.728,286.349 151.153,286.460 152.909 C 286.544 154.247,286.441 155.108,286.200 155.067 C 285.957 155.027,285.800 156.455,285.800 158.701 C 285.800 161.395,285.664 162.401,285.300 162.401 C 284.947 162.400,284.800 163.229,284.800 165.213 C 284.800 167.094,284.966 168.089,285.300 168.217 C 285.662 168.356,285.761 169.355,285.657 171.842 C 285.568 174.004,285.679 175.439,285.957 175.717 C 286.201 175.961,286.400 176.844,286.400 177.680 C 286.400 178.516,286.580 179.200,286.800 179.200 C 287.020 179.200,287.200 179.920,287.200 180.800 C 287.200 181.680,287.380 182.400,287.600 182.400 C 287.820 182.400,288.000 182.839,288.000 183.376 C 288.000 183.913,288.180 184.464,288.400 184.600 C 288.620 184.736,288.800 185.197,288.800 185.624 C 288.800 186.051,288.980 186.400,289.200 186.400 C 289.420 186.400,289.600 186.760,289.600 187.200 C 289.600 187.640,289.780 188.000,290.000 188.000 C 290.220 188.000,290.400 188.360,290.400 188.800 C 290.400 189.240,290.559 189.600,290.753 189.600 C 292.457 189.600,291.182 191.864,289.262 192.248 C 288.568 192.386,288.000 192.658,288.000 192.850 C 288.000 193.043,287.460 193.200,286.800 193.200 C 286.140 193.200,285.600 193.380,285.600 193.600 C 285.600 193.820,285.060 194.000,284.400 194.000 C 283.740 194.000,283.200 194.180,283.200 194.400 C 283.200 194.620,282.606 194.800,281.880 194.800 C 281.154 194.800,280.389 194.963,280.180 195.161 C 279.265 196.031,269.244 196.121,148.400 196.354 L 21.000 196.600 20.880 198.900 C 20.814 200.165,20.597 201.200,20.397 201.200 C 19.475 201.200,19.972 227.535,20.906 228.189 C 21.386 228.525,21.558 228.800,21.289 228.800 C 20.954 228.800,20.800 229.618,20.800 231.400 C 20.800 232.867,20.974 234.000,21.200 234.000 C 21.420 234.000,21.600 234.885,21.600 235.967 C 21.600 237.163,21.792 237.997,22.090 238.097 C 22.400 238.200,22.536 238.874,22.459 239.930 C 22.387 240.930,22.511 241.600,22.769 241.600 C 23.006 241.600,23.200 242.320,23.200 243.200 C 23.200 244.080,23.380 244.800,23.600 244.800 C 23.820 244.800,24.000 245.520,24.000 246.400 C 24.000 247.280,24.180 248.000,24.400 248.000 C 24.620 248.000,24.800 248.429,24.800 248.954 C 24.800 249.978,25.840 253.753,26.437 254.895 C 26.637 255.277,26.800 255.952,26.800 256.395 C 26.800 256.838,26.947 257.200,27.128 257.200 C 27.308 257.200,27.700 258.100,28.000 259.200 C 28.300 260.300,28.692 261.200,28.872 261.200 C 29.053 261.200,29.200 261.472,29.200 261.805 C 29.200 262.138,29.380 262.768,29.600 263.205 C 29.820 263.642,30.180 264.358,30.400 264.795 C 30.620 265.232,30.800 265.862,30.800 266.195 C 30.800 266.528,30.980 266.800,31.200 266.800 C 31.420 266.800,31.600 267.160,31.600 267.600 C 31.600 268.040,31.780 268.400,32.000 268.400 C 32.220 268.400,32.400 268.760,32.400 269.200 C 32.400 269.640,32.546 270.000,32.725 270.000 C 32.904 270.000,33.298 270.630,33.600 271.400 C 33.902 272.170,34.296 272.800,34.475 272.800 C 34.654 272.800,34.800 273.036,34.800 273.325 C 34.800 273.613,35.160 274.236,35.600 274.708 C 36.040 275.180,36.400 275.762,36.400 276.000 C 36.400 276.238,36.760 276.820,37.200 277.292 C 37.640 277.764,38.000 278.387,38.000 278.675 C 38.000 278.964,38.180 279.200,38.400 279.200 C 38.620 279.200,38.800 279.472,38.800 279.804 C 38.800 280.136,39.340 280.972,40.000 281.663 C 40.660 282.354,41.200 283.147,41.200 283.426 C 41.200 283.705,41.340 283.993,41.510 284.067 C 41.681 284.140,42.176 284.767,42.610 285.460 C 44.334 288.208,55.942 300.400,56.835 300.400 C 57.053 300.400,57.917 301.120,58.754 302.000 C 59.591 302.880,60.396 303.600,60.542 303.600 C 60.688 303.600,61.372 304.140,62.063 304.800 C 62.754 305.460,63.562 306.000,63.859 306.000 C 64.157 306.000,64.400 306.168,64.400 306.373 C 64.400 306.578,64.739 306.854,65.152 306.985 C 65.566 307.116,66.314 307.578,66.814 308.012 C 67.313 308.445,68.055 308.800,68.461 308.800 C 68.868 308.800,69.200 308.980,69.200 309.200 C 69.200 309.420,69.520 309.600,69.912 309.600 C 70.303 309.600,70.883 309.960,71.200 310.400 C 71.517 310.840,72.097 311.200,72.488 311.200 C 72.880 311.200,73.200 311.380,73.200 311.600 C 73.200 311.820,73.560 312.000,74.000 312.000 C 74.440 312.000,74.800 312.180,74.800 312.400 C 74.800 312.620,75.070 312.800,75.400 312.800 C 75.730 312.800,76.000 312.980,76.000 313.200 C 76.000 313.420,76.360 313.600,76.800 313.600 C 77.240 313.600,77.600 313.780,77.600 314.000 C 77.600 314.220,77.960 314.400,78.400 314.400 C 78.840 314.400,79.200 314.580,79.200 314.800 C 79.200 315.020,79.560 315.200,80.000 315.200 C 80.440 315.200,80.800 315.380,80.800 315.600 C 80.800 315.820,81.149 316.000,81.576 316.000 C 82.003 316.000,82.464 316.180,82.600 316.400 C 82.736 316.620,83.287 316.800,83.824 316.800 C 84.361 316.800,84.800 316.980,84.800 317.200 C 84.800 317.420,85.239 317.600,85.776 317.600 C 86.313 317.600,86.864 317.780,87.000 318.000 C 87.136 318.220,87.597 318.400,88.024 318.400 C 88.451 318.400,88.800 318.580,88.800 318.800 C 88.800 319.020,89.340 319.200,90.000 319.200 C 90.660 319.200,91.200 319.380,91.200 319.600 C 91.200 319.820,91.740 320.000,92.400 320.000 C 93.060 320.000,93.600 320.180,93.600 320.400 C 93.600 320.620,94.129 320.800,94.776 320.800 C 95.423 320.800,96.052 320.960,96.173 321.156 C 96.294 321.351,96.979 321.608,97.696 321.727 C 98.413 321.845,99.810 322.146,100.800 322.396 C 101.790 322.646,103.455 323.019,104.500 323.225 C 105.545 323.431,107.345 323.788,108.500 324.018 C 111.947 324.703,116.019 325.149,119.076 325.175 C 120.658 325.189,122.064 325.380,122.200 325.600 C 122.350 325.843,125.337 326.000,129.824 326.000 C 134.475 326.000,137.200 325.852,137.200 325.600 C 137.200 325.380,136.165 325.175,134.900 325.144 C 133.635 325.113,130.492 325.039,127.915 324.980 C 125.338 324.920,122.638 324.695,121.915 324.479 C 121.192 324.262,119.548 324.074,118.263 324.061 C 116.978 324.048,115.718 323.867,115.463 323.659 C 115.208 323.451,114.370 323.284,113.600 323.289 C 111.437 323.300,109.600 323.058,109.600 322.762 C 109.600 322.614,109.105 322.489,108.500 322.484 C 106.825 322.470,105.600 322.257,105.600 321.982 C 105.600 321.845,105.195 321.769,104.700 321.812 C 104.205 321.855,103.530 321.753,103.200 321.585 C 102.870 321.417,102.040 321.191,101.355 321.083 C 100.670 320.975,99.725 320.681,99.255 320.430 C 98.785 320.178,98.400 320.064,98.400 320.176 C 98.400 320.288,97.905 320.185,97.300 319.946 C 96.695 319.708,95.705 319.464,95.100 319.405 C 94.495 319.346,93.730 319.074,93.400 318.800 C 92.904 318.388,92.795 318.431,92.772 319.051 C 92.746 319.748,92.720 319.744,92.400 319.000 C 92.211 318.560,92.041 318.380,92.022 318.600 C 92.003 318.820,91.837 318.763,91.654 318.473 C 91.470 318.184,91.068 317.905,90.760 317.854 C 90.452 317.803,89.795 317.539,89.300 317.267 C 88.805 316.995,88.400 316.858,88.400 316.964 C 88.400 317.070,87.455 316.742,86.300 316.236 C 85.145 315.730,83.950 315.404,83.644 315.510 C 83.306 315.628,83.198 315.527,83.368 315.252 C 83.522 315.003,83.457 314.800,83.224 314.800 C 82.991 314.800,82.796 315.025,82.791 315.300 C 82.786 315.575,82.471 315.407,82.091 314.927 C 81.456 314.125,74.212 310.400,73.287 310.400 C 73.066 310.400,72.782 310.130,72.655 309.800 C 72.529 309.470,72.070 309.200,71.636 309.200 C 71.202 309.200,70.735 309.019,70.599 308.798 C 70.210 308.169,65.506 305.067,64.941 305.067 C 64.663 305.067,64.516 304.936,64.615 304.775 C 64.802 304.474,63.629 303.824,63.100 303.936 C 62.935 303.971,62.800 303.730,62.800 303.400 C 62.800 303.070,62.530 302.800,62.200 302.800 C 61.870 302.800,61.600 302.623,61.600 302.408 C 61.600 302.192,61.150 301.902,60.600 301.764 C 60.050 301.626,59.600 301.263,59.600 300.957 C 59.600 300.650,59.417 300.400,59.193 300.400 C 58.969 300.400,58.174 299.770,57.426 299.000 C 56.679 298.230,55.982 297.600,55.878 297.600 C 55.774 297.600,54.274 296.129,52.545 294.330 C 50.815 292.532,48.725 290.424,47.900 289.647 C 47.075 288.869,46.400 288.091,46.400 287.916 C 46.400 287.742,46.032 287.195,45.581 286.700 C 44.030 284.994,43.725 284.596,42.977 283.300 C 42.565 282.585,42.108 282.000,41.962 282.000 C 41.816 282.000,41.473 281.460,41.200 280.800 C 40.927 280.140,40.567 279.600,40.400 279.600 C 40.233 279.600,39.873 279.060,39.600 278.400 C 39.327 277.740,38.945 277.200,38.751 277.200 C 38.558 277.200,38.400 277.023,38.400 276.807 C 38.400 276.591,37.680 275.238,36.800 273.800 C 35.920 272.362,35.200 271.009,35.200 270.793 C 35.200 270.577,34.990 270.400,34.733 270.400 C 34.477 270.400,34.372 270.295,34.500 270.166 C 34.629 270.038,34.446 269.596,34.095 269.185 C 33.743 268.775,33.399 268.071,33.330 267.622 C 33.188 266.686,31.176 262.728,30.649 262.345 C 30.456 262.204,30.438 261.862,30.611 261.583 C 30.814 261.253,30.762 261.176,30.462 261.362 C 30.183 261.534,29.976 261.361,29.939 260.924 C 29.906 260.526,29.858 259.999,29.833 259.754 C 29.808 259.509,29.589 259.059,29.345 258.754 C 29.102 258.449,28.954 257.885,29.016 257.500 C 29.078 257.115,28.965 256.800,28.765 256.800 C 28.564 256.800,28.400 256.361,28.400 255.824 C 28.400 255.287,28.220 254.736,28.000 254.600 C 27.780 254.464,27.600 253.913,27.600 253.376 C 27.600 252.778,27.369 252.400,27.004 252.400 C 26.653 252.400,26.409 252.031,26.410 251.500 C 26.412 249.718,25.896 247.535,25.431 247.356 C 25.170 247.256,24.993 246.640,25.038 245.987 C 25.083 245.334,24.958 244.800,24.760 244.800 C 24.562 244.800,24.394 244.035,24.387 243.100 C 24.380 242.165,24.109 241.049,23.785 240.621 C 23.461 240.193,23.297 239.524,23.420 239.136 C 23.544 238.748,23.421 238.018,23.149 237.515 C 22.876 237.012,22.699 235.943,22.754 235.141 C 22.810 234.338,22.697 233.584,22.504 233.464 C 22.310 233.344,22.110 232.441,22.059 231.456 C 22.008 230.470,21.871 229.245,21.755 228.732 C 21.327 226.846,20.695 216.217,20.868 213.800 C 20.915 213.140,20.964 210.440,20.977 207.800 C 20.990 205.160,21.161 202.883,21.357 202.741 C 21.553 202.599,21.823 201.339,21.957 199.941 L 22.200 197.400 144.600 197.464 C 211.920 197.499,268.935 197.607,271.300 197.704 C 274.476 197.835,275.711 197.748,276.024 197.371 C 276.257 197.091,276.909 196.945,277.473 197.048 C 278.106 197.162,278.823 196.959,279.343 196.517 C 280.162 195.820,280.169 195.822,279.593 196.565 C 279.028 197.295,279.047 197.306,279.986 196.805 C 280.528 196.516,281.518 196.262,282.186 196.240 C 282.923 196.216,283.361 196.005,283.301 195.703 C 283.234 195.368,283.622 195.253,284.495 195.348 C 285.206 195.426,286.060 195.348,286.394 195.174 C 286.727 195.000,287.326 194.757,287.725 194.632 C 288.124 194.508,288.354 194.249,288.236 194.058 C 288.118 193.867,288.421 193.740,288.910 193.776 C 289.400 193.812,290.278 193.518,290.862 193.121 C 291.446 192.724,292.211 192.400,292.562 192.400 C 293.379 192.400,293.401 190.944,292.596 190.139 C 292.264 189.807,292.095 189.370,292.220 189.168 C 292.345 188.965,292.295 188.800,292.110 188.800 C 291.701 188.800,290.346 186.581,290.476 186.124 C 290.527 185.946,290.036 184.630,289.385 183.200 C 288.733 181.770,288.257 180.430,288.326 180.222 C 288.395 180.014,288.271 179.474,288.051 179.022 C 287.608 178.115,287.295 176.213,287.004 172.655 C 286.899 171.365,286.631 169.655,286.409 168.855 C 285.896 167.010,285.881 162.970,286.383 162.032 C 286.594 161.638,286.858 159.985,286.970 158.358 C 287.256 154.214,288.300 148.400,288.758 148.400 C 288.905 148.400,289.066 147.905,289.116 147.300 C 289.166 146.695,289.385 146.140,289.603 146.067 C 289.822 145.993,290.000 145.509,290.000 144.990 C 290.000 144.472,290.183 143.934,290.407 143.796 C 290.630 143.658,290.702 143.366,290.567 143.147 C 290.432 142.928,290.617 142.423,290.978 142.025 C 291.338 141.626,291.592 141.143,291.541 140.950 C 291.410 140.454,293.224 136.800,293.601 136.800 C 293.773 136.800,294.037 136.307,294.188 135.704 C 294.340 135.101,294.594 134.516,294.753 134.404 C 295.446 133.916,297.289 131.156,297.069 130.936 C 296.936 130.803,297.282 130.336,297.838 129.899 C 298.394 129.461,298.753 128.855,298.637 128.552 C 298.520 128.248,298.670 128.000,298.970 128.000 C 299.558 128.000,300.176 126.909,300.046 126.100 C 300.001 125.825,300.253 125.600,300.606 125.600 C 300.959 125.600,301.151 125.756,301.033 125.947 C 300.736 126.427,302.257 127.736,302.755 127.428 C 302.978 127.290,303.349 127.530,303.580 127.962 C 303.810 128.393,304.377 128.866,304.839 129.012 C 305.301 129.159,305.995 129.576,306.382 129.939 C 306.768 130.303,307.672 131.050,308.389 131.600 C 309.106 132.150,309.987 132.900,310.346 133.267 C 310.706 133.634,311.266 133.994,311.590 134.067 C 312.307 134.228,313.200 135.015,313.200 135.485 C 313.200 136.117,317.442 140.024,317.787 139.710 C 317.975 139.540,318.008 139.611,317.860 139.868 C 317.711 140.129,318.061 140.704,318.650 141.168 C 319.232 141.626,319.595 142.000,319.458 142.000 C 319.200 142.000,320.066 143.156,321.300 144.460 C 321.685 144.867,321.901 145.200,321.781 145.200 C 321.660 145.200,322.190 145.847,322.957 146.637 C 323.725 147.427,324.468 148.597,324.608 149.237 C 324.749 149.877,324.988 150.400,325.141 150.400 C 325.512 150.400,326.735 152.707,327.154 154.200 C 327.339 154.860,327.709 155.351,327.975 155.290 C 328.265 155.224,328.421 155.547,328.363 156.090 C 328.224 157.407,329.152 160.407,329.664 160.295 C 329.904 160.243,330.191 160.450,330.302 160.756 C 330.426 161.096,330.329 161.203,330.052 161.032 C 329.444 160.656,329.477 161.307,330.100 161.979 C 330.497 162.407,330.498 162.460,330.101 162.236 C 329.710 162.015,329.698 162.197,330.047 163.077 C 330.291 163.695,330.476 164.797,330.457 165.528 L 330.422 166.856 333.437 166.682 C 335.095 166.586,336.650 166.310,336.893 166.067 C 337.171 165.789,338.176 165.714,339.621 165.865 C 341.316 166.042,342.247 165.935,343.216 165.452 C 344.932 164.596,348.228 164.575,348.552 165.418 C 348.741 165.911,349.241 165.994,351.014 165.826 C 352.237 165.710,353.142 165.771,353.024 165.962 C 352.750 166.405,354.050 166.640,356.662 166.617 C 357.796 166.608,358.640 166.735,358.538 166.900 C 358.364 167.182,359.597 167.372,360.690 167.232 C 360.960 167.198,361.702 167.439,362.340 167.769 C 362.977 168.098,363.607 168.260,363.740 168.127 C 363.872 167.994,364.229 168.092,364.533 168.344 C 364.855 168.612,365.612 168.698,366.350 168.550 C 367.409 168.338,367.574 168.403,367.364 168.949 C 367.200 169.378,367.326 169.600,367.734 169.600 C 368.075 169.600,369.029 169.998,369.853 170.484 C 370.677 170.970,371.218 171.152,371.055 170.889 C 370.857 170.568,370.964 170.488,371.379 170.647 C 371.721 170.778,372.000 171.147,372.000 171.466 C 372.000 171.786,372.161 171.948,372.358 171.826 C 372.555 171.704,372.818 171.871,372.943 172.196 C 373.083 172.561,373.429 172.687,373.850 172.525 C 374.310 172.349,374.438 172.416,374.243 172.730 C 374.067 173.016,374.384 173.391,375.062 173.698 C 375.671 173.974,376.604 174.602,377.135 175.093 C 377.666 175.583,378.244 175.896,378.420 175.788 C 379.696 174.999,375.822 184.598,374.462 185.594 C 374.307 185.707,373.735 186.655,373.191 187.700 C 372.647 188.745,372.055 189.600,371.877 189.600 C 371.699 189.600,371.652 189.761,371.774 189.958 C 371.896 190.155,371.726 190.419,371.398 190.546 C 371.069 190.672,370.800 191.036,370.800 191.354 C 370.800 191.673,370.665 191.993,370.500 192.067 C 370.335 192.140,369.480 193.096,368.600 194.191 C 367.720 195.285,366.288 196.815,365.419 197.591 C 364.549 198.366,363.072 199.768,362.136 200.706 C 361.200 201.644,360.292 202.378,360.117 202.336 C 359.609 202.215,357.600 203.293,357.600 203.688 C 357.600 203.885,357.419 203.935,357.197 203.798 C 356.976 203.661,356.685 203.834,356.552 204.182 C 356.418 204.530,356.014 204.766,355.654 204.707 C 355.245 204.640,355.020 204.858,355.054 205.289 C 355.097 205.846,354.962 205.901,354.348 205.572 C 353.768 205.262,353.532 205.311,353.352 205.780 C 353.222 206.119,352.947 206.291,352.741 206.163 C 352.534 206.036,352.134 206.123,351.851 206.358 C 351.568 206.592,350.964 206.841,350.508 206.911 C 350.051 206.980,349.435 207.229,349.139 207.464 C 348.843 207.699,348.330 207.916,348.000 207.946 C 345.708 208.156,344.310 208.594,343.855 209.242 C 343.565 209.656,343.231 209.898,343.113 209.780 C 342.608 209.275,340.771 209.210,340.587 209.691 C 340.453 210.039,339.603 210.178,337.896 210.129 C 336.523 210.090,334.800 210.244,334.067 210.471 C 333.334 210.698,330.544 210.910,327.867 210.942 C 324.211 210.986,323.025 211.124,323.100 211.500 C 323.155 211.775,323.001 212.000,322.757 212.000 C 322.514 212.000,322.414 212.258,322.535 212.574 C 322.656 212.890,322.630 213.205,322.478 213.274 C 322.024 213.480,320.000 217.754,320.000 218.506 C 320.000 218.888,319.841 219.200,319.647 219.200 C 319.255 219.200,318.679 220.718,318.774 221.500 C 318.808 221.775,318.617 222.000,318.351 222.000 C 318.085 222.000,317.987 222.120,318.134 222.268 C 318.281 222.415,318.103 222.865,317.739 223.268 C 317.374 223.670,317.203 224.000,317.358 224.000 C 317.514 224.000,317.182 224.602,316.620 225.338 C 316.059 226.074,315.600 227.074,315.600 227.561 C 315.600 228.050,315.421 228.336,315.200 228.200 C 314.840 227.978,314.627 228.503,314.753 229.300 C 314.779 229.465,314.638 229.600,314.439 229.600 C 314.241 229.600,313.881 230.095,313.640 230.700 C 313.398 231.305,312.747 232.520,312.192 233.400 C 311.637 234.280,311.080 235.270,310.954 235.600 C 310.828 235.930,310.537 236.702,310.308 237.315 C 310.078 237.929,309.555 238.610,309.145 238.829 C 308.735 239.049,308.400 239.492,308.400 239.814 C 308.400 240.136,308.240 240.400,308.043 240.400 C 307.847 240.400,307.582 240.817,307.454 241.326 C 307.326 241.836,306.857 242.673,306.411 243.187 C 305.965 243.702,305.600 244.363,305.600 244.658 C 305.600 244.952,305.240 245.418,304.800 245.693 C 304.360 245.968,304.000 246.509,304.000 246.896 C 304.000 247.283,303.809 247.600,303.576 247.600 C 303.343 247.600,303.251 247.760,303.372 247.955 C 303.492 248.150,303.278 248.391,302.896 248.492 C 302.513 248.592,301.930 249.188,301.600 249.816 C 301.270 250.443,300.601 251.391,300.114 251.922 C 299.627 252.452,299.264 253.002,299.308 253.143 C 299.351 253.284,298.940 253.862,298.394 254.427 C 297.160 255.702,294.727 258.698,294.226 259.558 C 294.021 259.911,293.083 260.994,292.142 261.963 C 291.201 262.933,290.525 263.878,290.639 264.063 C 290.754 264.249,290.567 264.400,290.224 264.400 C 289.881 264.400,289.600 264.537,289.600 264.704 C 289.600 264.871,289.105 265.543,288.500 266.196 C 287.895 266.850,287.445 267.523,287.500 267.692 C 287.555 267.861,287.375 267.955,287.100 267.900 C 286.825 267.845,286.645 268.025,286.700 268.300 C 286.755 268.575,286.638 268.755,286.440 268.700 C 286.242 268.645,286.029 268.780,285.967 269.000 C 285.905 269.220,285.392 269.758,284.827 270.196 C 282.883 271.703,281.957 272.806,282.244 273.271 C 282.440 273.588,282.305 273.649,281.821 273.463 C 281.286 273.258,281.170 273.345,281.351 273.816 C 281.488 274.173,281.422 274.337,281.199 274.199 C 280.753 273.924,278.724 275.791,279.081 276.148 C 279.210 276.276,278.974 276.503,278.557 276.652 C 277.693 276.962,275.311 278.829,273.072 280.951 C 272.231 281.748,271.389 282.400,271.201 282.400 C 271.012 282.400,270.530 282.805,270.129 283.300 C 269.728 283.795,268.635 284.698,267.700 285.306 C 266.765 285.914,266.000 286.589,266.000 286.806 C 266.000 287.023,265.739 287.200,265.419 287.200 C 265.100 287.200,264.227 287.830,263.479 288.600 C 262.731 289.370,261.912 290.000,261.660 290.000 C 261.407 290.000,261.200 290.191,261.200 290.424 C 261.200 290.657,261.054 290.757,260.876 290.647 C 260.697 290.537,259.932 290.976,259.176 291.622 C 258.419 292.269,257.575 292.799,257.300 292.799 C 257.025 292.800,256.799 292.935,256.797 293.100 C 256.795 293.265,256.390 293.597,255.897 293.838 C 254.702 294.422,249.454 297.651,249.200 297.958 C 249.090 298.091,247.785 298.830,246.301 299.600 C 244.428 300.571,243.601 301.230,243.601 301.749 C 243.600 302.348,243.487 302.404,243.036 302.030 C 242.643 301.704,242.391 301.691,242.208 301.987 C 242.063 302.221,241.776 302.309,241.570 302.181 C 241.363 302.054,241.082 302.241,240.946 302.598 C 240.809 302.954,240.443 303.149,240.133 303.030 C 239.823 302.911,239.463 303.091,239.333 303.430 C 239.203 303.769,238.843 303.949,238.533 303.830 C 238.223 303.711,237.866 303.884,237.739 304.214 C 237.613 304.544,237.304 304.776,237.054 304.729 C 236.470 304.620,232.928 306.270,232.597 306.805 C 232.458 307.030,232.199 307.123,232.021 307.013 C 231.504 306.693,229.165 308.020,229.446 308.474 C 229.604 308.730,229.402 308.791,228.911 308.635 C 228.068 308.368,225.836 309.302,226.273 309.739 C 226.416 309.883,226.098 310.003,225.567 310.006 C 224.355 310.014,221.727 310.913,221.107 311.533 C 220.850 311.790,220.410 312.000,220.128 312.000 C 219.676 312.000,214.379 313.648,212.800 314.280 C 212.470 314.412,211.844 314.588,211.409 314.672 C 210.973 314.755,210.442 314.998,210.229 315.211 C 210.015 315.425,209.426 315.600,208.920 315.600 C 208.414 315.600,208.000 315.801,208.000 316.047 C 208.000 316.296,207.647 316.401,207.200 316.284 C 206.761 316.169,206.298 316.241,206.173 316.444 C 206.047 316.647,205.769 316.705,205.555 316.572 C 205.340 316.440,204.898 316.552,204.573 316.823 C 204.247 317.093,203.872 317.205,203.740 317.073 C 203.607 316.940,202.936 317.066,202.249 317.351 C 201.562 317.637,200.775 317.795,200.500 317.702 C 200.225 317.609,200.000 317.739,200.000 317.990 C 200.000 318.242,199.820 318.336,199.600 318.200 C 199.380 318.064,199.200 318.099,199.200 318.277 C 199.200 318.455,198.553 318.617,197.763 318.637 C 196.972 318.657,196.207 318.860,196.063 319.089 C 195.918 319.318,195.350 319.467,194.800 319.421 C 194.250 319.374,193.433 319.555,192.984 319.822 C 192.535 320.090,191.646 320.251,191.008 320.181 C 190.369 320.111,189.486 320.247,189.044 320.483 C 188.603 320.720,187.602 320.958,186.821 321.013 C 186.039 321.067,184.950 321.272,184.400 321.467 C 183.850 321.662,182.860 321.794,182.200 321.761 C 181.540 321.727,180.679 321.867,180.286 322.072 C 179.893 322.276,178.633 322.503,177.486 322.577 C 176.339 322.651,175.105 322.832,174.744 322.981 C 174.383 323.130,172.943 323.314,171.544 323.390 C 170.145 323.466,168.267 323.695,167.371 323.898 C 166.475 324.101,164.810 324.210,163.671 324.140 C 162.532 324.071,161.600 324.185,161.600 324.394 C 161.600 324.604,161.330 324.671,161.000 324.545 C 160.670 324.418,160.400 324.514,160.400 324.757 C 160.400 325.572,169.216 325.187,177.400 324.015 C 178.940 323.795,181.100 323.504,182.200 323.368 C 183.300 323.233,184.371 322.960,184.580 322.761 C 184.789 322.563,185.788 322.400,186.800 322.400 C 187.812 322.400,188.811 322.238,189.020 322.041 C 189.373 321.708,190.184 321.552,194.700 320.947 C 195.635 320.822,196.400 320.558,196.400 320.360 C 196.400 320.162,197.120 320.000,198.000 320.000 C 198.880 320.000,199.600 319.820,199.600 319.600 C 199.600 319.380,200.320 319.200,201.200 319.200 C 202.080 319.200,202.800 319.020,202.800 318.800 C 202.800 318.580,203.430 318.400,204.200 318.400 C 204.970 318.400,205.600 318.220,205.600 318.000 C 205.600 317.780,206.129 317.600,206.776 317.600 C 207.423 317.600,208.064 317.420,208.200 317.200 C 208.336 316.980,208.887 316.800,209.424 316.800 C 209.961 316.800,210.400 316.620,210.400 316.400 C 210.400 316.180,211.019 316.000,211.776 316.000 C 212.533 316.000,213.264 315.820,213.400 315.600 C 213.536 315.380,214.076 315.200,214.600 315.200 C 215.124 315.200,215.664 315.020,215.800 314.800 C 215.936 314.580,216.397 314.400,216.824 314.400 C 217.251 314.400,217.600 314.220,217.600 314.000 C 217.600 313.780,218.140 313.600,218.800 313.600 C 219.460 313.600,220.000 313.420,220.000 313.200 C 220.000 312.980,220.540 312.800,221.200 312.800 C 221.860 312.800,222.400 312.620,222.400 312.400 C 222.400 312.180,222.749 312.000,223.176 312.000 C 223.603 312.000,224.064 311.820,224.200 311.600 C 224.336 311.380,224.797 311.200,225.224 311.200 C 225.651 311.200,226.000 311.020,226.000 310.800 C 226.000 310.580,226.349 310.400,226.776 310.400 C 227.203 310.400,227.664 310.220,227.800 310.000 C 227.936 309.780,228.487 309.600,229.024 309.600 C 229.561 309.600,230.000 309.436,230.000 309.235 C 230.000 309.034,230.720 308.749,231.600 308.600 C 232.480 308.451,233.200 308.166,233.200 307.965 C 233.200 307.764,233.452 307.600,233.759 307.600 C 234.067 307.600,235.345 307.060,236.600 306.400 C 237.855 305.740,239.133 305.200,239.441 305.200 C 239.748 305.200,240.000 305.020,240.000 304.800 C 240.000 304.580,240.345 304.400,240.767 304.400 C 241.188 304.400,241.593 304.265,241.667 304.100 C 241.834 303.724,243.964 302.425,244.900 302.129 C 245.285 302.007,245.600 301.748,245.600 301.553 C 245.600 301.359,245.960 301.200,246.400 301.200 C 246.840 301.200,247.200 301.020,247.200 300.800 C 247.200 300.580,247.560 300.400,248.000 300.400 C 248.440 300.400,248.800 300.220,248.800 300.000 C 248.800 299.780,249.036 299.600,249.325 299.600 C 249.613 299.600,250.236 299.240,250.708 298.800 C 251.180 298.360,251.844 298.000,252.183 298.000 C 252.522 298.000,252.800 297.820,252.800 297.600 C 252.800 297.380,253.070 297.200,253.400 297.200 C 253.730 297.200,254.000 297.020,254.000 296.800 C 254.000 296.580,254.270 296.400,254.600 296.400 C 254.930 296.400,255.200 296.220,255.200 296.000 C 255.200 295.780,255.470 295.600,255.800 295.600 C 256.130 295.600,256.400 295.420,256.400 295.200 C 256.400 294.980,256.670 294.800,257.000 294.800 C 257.330 294.800,257.600 294.620,257.600 294.400 C 257.600 294.180,257.830 294.000,258.112 294.000 C 258.393 294.000,258.883 293.640,259.200 293.200 C 259.517 292.760,260.020 292.400,260.317 292.400 C 260.614 292.400,261.108 292.175,261.415 291.900 C 262.683 290.762,263.183 290.400,263.483 290.400 C 263.657 290.399,264.323 289.949,264.962 289.400 C 265.601 288.850,266.270 288.400,266.449 288.400 C 266.627 288.400,267.403 287.770,268.173 287.000 C 268.943 286.230,269.738 285.600,269.938 285.600 C 270.139 285.600,271.045 284.880,271.952 284.000 C 272.859 283.120,273.698 282.400,273.818 282.400 C 273.937 282.400,275.422 281.000,277.117 279.289 C 278.813 277.578,280.612 275.891,281.116 275.540 C 283.465 273.905,294.000 262.743,294.000 261.890 C 294.000 261.696,294.720 260.846,295.600 260.000 C 296.480 259.154,297.200 258.341,297.200 258.192 C 297.200 258.043,297.740 257.417,298.400 256.800 C 299.060 256.183,299.600 255.481,299.600 255.240 C 299.600 254.998,299.780 254.800,300.000 254.800 C 300.220 254.800,300.400 254.570,300.400 254.288 C 300.400 254.007,300.760 253.517,301.200 253.200 C 301.640 252.883,302.000 252.420,302.000 252.171 C 302.000 251.922,302.540 251.154,303.200 250.463 C 303.860 249.772,304.400 248.936,304.400 248.604 C 304.400 248.272,304.550 248.000,304.732 248.000 C 304.915 248.000,305.320 247.505,305.632 246.900 C 305.945 246.295,306.515 245.451,306.900 245.025 C 307.285 244.598,307.600 244.013,307.600 243.725 C 307.600 243.436,307.777 243.200,307.992 243.200 C 308.208 243.200,308.498 242.750,308.636 242.200 C 308.774 241.650,309.047 241.200,309.243 241.200 C 309.440 241.200,309.600 240.930,309.600 240.600 C 309.600 240.270,309.780 240.000,310.000 240.000 C 310.220 240.000,310.400 239.730,310.400 239.400 C 310.400 239.070,310.580 238.800,310.800 238.800 C 311.020 238.800,311.200 238.440,311.200 238.000 C 311.200 237.560,311.380 237.200,311.600 237.200 C 311.820 237.200,312.000 236.930,312.000 236.600 C 312.000 236.270,312.180 236.000,312.400 236.000 C 312.620 236.000,312.800 235.730,312.800 235.400 C 312.800 235.070,312.980 234.800,313.200 234.800 C 313.420 234.800,313.600 234.440,313.600 234.000 C 313.600 233.560,313.780 233.200,314.000 233.200 C 314.220 233.200,314.400 232.840,314.400 232.400 C 314.400 231.960,314.580 231.600,314.800 231.600 C 315.020 231.600,315.200 231.240,315.200 230.800 C 315.200 230.360,315.335 229.997,315.500 229.994 C 315.665 229.990,316.240 229.090,316.779 227.994 C 317.317 226.897,317.902 226.000,318.079 226.000 C 318.255 226.000,318.400 225.735,318.400 225.412 C 318.400 225.089,318.760 224.183,319.200 223.400 C 319.640 222.617,320.000 221.711,320.000 221.388 C 320.000 221.065,320.180 220.800,320.400 220.800 C 320.620 220.800,320.800 220.440,320.800 220.000 C 320.800 219.560,320.980 219.200,321.200 219.200 C 321.420 219.200,321.600 218.840,321.600 218.400 C 321.600 217.960,321.780 217.600,322.000 217.600 C 322.220 217.600,322.400 217.328,322.400 216.995 C 322.400 216.407,322.567 215.982,323.538 214.105 C 323.792 213.613,324.000 212.938,324.000 212.605 C 324.000 212.097,324.802 212.000,329.000 212.000 C 332.067 212.000,334.000 211.845,334.000 211.600 C 334.000 211.365,335.400 211.200,337.400 211.200 C 339.400 211.200,340.800 211.035,340.800 210.800 C 340.800 210.580,341.700 210.400,342.800 210.400 C 343.900 210.400,344.800 210.220,344.800 210.000 C 344.800 209.780,345.329 209.600,345.976 209.600 C 346.623 209.600,347.264 209.420,347.400 209.200 C 347.536 208.980,348.222 208.799,348.924 208.798 C 349.626 208.796,350.716 208.526,351.346 208.198 C 351.976 207.869,352.653 207.600,352.850 207.600 C 353.272 207.600,356.909 205.946,357.200 205.622 C 357.310 205.499,357.895 205.144,358.500 204.832 C 359.105 204.520,359.600 204.115,359.600 203.932 C 359.600 203.750,359.872 203.600,360.204 203.600 C 360.536 203.600,361.372 203.060,362.063 202.400 C 362.754 201.740,363.483 201.200,363.684 201.200 C 364.188 201.200,370.800 194.426,370.800 193.910 C 370.800 193.681,371.115 193.202,371.500 192.846 C 372.420 191.995,374.000 189.731,374.000 189.265 C 374.000 189.063,374.270 188.674,374.600 188.400 C 374.930 188.126,375.200 187.564,375.200 187.151 C 375.200 186.738,375.380 186.400,375.600 186.400 C 375.820 186.400,376.000 186.040,376.000 185.600 C 376.000 185.160,376.180 184.800,376.400 184.800 C 376.620 184.800,376.800 184.440,376.800 184.000 C 376.800 183.560,376.980 183.200,377.200 183.200 C 377.420 183.200,377.600 182.840,377.600 182.400 C 377.600 181.960,377.780 181.600,378.000 181.600 C 378.220 181.600,378.400 181.240,378.400 180.800 C 378.400 180.360,378.580 180.000,378.800 180.000 C 379.020 180.000,379.200 179.640,379.200 179.200 C 379.200 178.760,379.380 178.400,379.600 178.400 C 379.820 178.400,380.000 177.590,380.000 176.600 C 380.000 175.141,379.865 174.800,379.288 174.800 C 378.897 174.800,378.317 174.440,378.000 174.000 C 377.683 173.560,377.143 173.200,376.800 173.200 C 376.457 173.200,375.917 172.840,375.600 172.400 C 375.283 171.960,374.793 171.600,374.512 171.600 C 374.230 171.600,374.000 171.420,374.000 171.200 C 374.000 170.980,373.730 170.800,373.400 170.800 C 373.070 170.800,372.800 170.620,372.800 170.400 C 372.800 170.180,372.530 170.000,372.200 170.000 C 371.870 170.000,371.600 169.820,371.600 169.600 C 371.600 169.380,371.240 169.200,370.800 169.200 C 370.360 169.200,370.000 169.020,370.000 168.800 C 370.000 168.580,369.638 168.400,369.195 168.400 C 368.752 168.400,367.987 168.192,367.495 167.938 C 365.516 166.915,365.164 166.800,364.005 166.800 C 363.342 166.800,362.800 166.620,362.800 166.400 C 362.800 166.180,361.900 166.000,360.800 166.000 C 359.700 166.000,358.800 165.820,358.800 165.600 C 358.800 165.369,357.541 165.200,355.824 165.200 C 354.187 165.200,352.736 165.020,352.600 164.800 C 352.449 164.556,349.396 164.400,344.776 164.400 C 339.992 164.400,337.200 164.547,337.200 164.800 C 337.200 165.029,336.000 165.200,334.400 165.200 L 331.600 165.200 331.600 163.600 C 331.600 162.720,331.420 162.000,331.200 162.000 C 330.980 162.000,330.800 161.370,330.800 160.600 C 330.800 159.830,330.620 159.200,330.400 159.200 C 330.180 159.200,330.000 158.660,330.000 158.000 C 330.000 157.340,329.820 156.800,329.600 156.800 C 329.380 156.800,329.200 156.260,329.200 155.600 C 329.200 154.940,329.020 154.400,328.800 154.400 C 328.580 154.400,328.400 154.040,328.400 153.600 C 328.400 153.160,328.220 152.800,328.000 152.800 C 327.780 152.800,327.600 152.440,327.600 152.000 C 327.600 151.560,327.420 151.200,327.200 151.200 C 326.980 151.200,326.800 150.840,326.800 150.400 C 326.800 149.960,326.620 149.600,326.400 149.600 C 326.180 149.600,326.000 149.322,326.000 148.983 C 326.000 148.644,325.819 148.149,325.599 147.883 C 325.378 147.617,324.544 146.410,323.745 145.200 C 322.946 143.990,321.687 142.415,320.946 141.701 C 320.206 140.986,319.600 140.232,319.600 140.023 C 319.600 139.505,315.319 135.205,313.600 133.997 C 312.830 133.456,311.625 132.441,310.923 131.743 C 310.220 131.044,309.095 130.147,308.423 129.750 C 307.750 129.353,307.200 128.886,307.200 128.714 C 307.200 128.541,306.930 128.400,306.600 128.400 C 306.270 128.400,306.000 128.250,306.000 128.068 C 306.000 127.885,305.505 127.480,304.900 127.168 C 304.295 126.855,303.190 126.195,302.444 125.700 C 300.702 124.544,299.948 124.565,298.872 125.803 M47.200 172.404 L 47.200 189.608 66.700 189.504 L 86.200 189.400 86.304 172.300 L 86.409 155.200 67.504 155.296 L 48.600 155.392 66.654 155.500 L 84.709 155.608 84.949 156.504 C 85.081 156.997,85.192 164.330,85.195 172.800 L 85.200 188.200 67.000 188.092 L 48.800 187.984 48.800 172.225 C 48.800 156.193,48.739 155.200,47.757 155.200 C 47.290 155.200,47.200 157.965,47.200 172.404 M91.200 172.400 L 91.200 189.600 110.600 189.600 L 130.000 189.600 130.000 172.400 L 130.000 155.200 110.600 155.200 L 91.200 155.200 91.200 172.400 M134.896 172.314 L 135.000 189.400 154.400 189.400 L 173.800 189.400 173.904 172.293 L 174.009 155.187 154.400 155.208 L 134.791 155.228 134.896 172.314 M179.200 172.400 L 179.200 189.600 198.400 189.600 L 217.600 189.600 217.600 172.400 L 217.600 155.200 198.400 155.200 L 179.200 155.200 179.200 172.400 M223.208 172.393 L 223.185 189.600 242.192 189.600 L 261.200 189.600 261.200 172.415 L 261.200 155.229 242.216 155.208 L 223.232 155.186 223.208 172.393 M128.557 156.233 C 128.691 156.581,128.786 164.096,128.768 172.933 C 128.751 181.770,128.646 188.775,128.535 188.500 C 128.378 188.110,124.366 188.000,110.367 188.000 L 92.400 188.000 92.400 171.800 L 92.400 155.600 110.357 155.600 C 126.363 155.600,128.341 155.669,128.557 156.233 M172.400 171.800 L 172.400 188.000 154.200 188.000 L 136.000 188.000 136.000 172.433 C 136.000 163.871,136.109 156.581,136.243 156.233 C 136.459 155.669,138.437 155.600,154.443 155.600 L 172.400 155.600 172.400 171.800 M260.148 156.500 C 260.281 156.995,260.392 164.285,260.395 172.700 L 260.400 188.000 242.400 188.000 L 224.400 188.000 224.400 172.067 C 224.400 163.303,224.520 156.013,224.667 155.867 C 224.813 155.720,232.802 155.600,242.420 155.600 L 259.907 155.600 260.148 156.500 M216.305 172.400 L 216.409 188.200 198.005 188.092 L 179.600 187.984 179.600 172.188 L 179.600 156.392 197.900 156.496 L 216.200 156.600 216.305 172.400 M148.001 325.176 C 148.001 325.299,146.741 325.340,145.201 325.267 C 143.409 325.182,142.400 325.287,142.400 325.559 C 142.400 325.846,145.330 325.983,151.431 325.983 C 158.396 325.983,160.424 325.871,160.297 325.492 C 160.130 324.993,147.999 324.681,148.001 325.176 " stroke="none" fill="#049cec" fill-rule="evenodd"></path><path id="path2" d="" stroke="none" fill="#109cec" fill-rule="evenodd"></path><path id="path3" d="" stroke="none" fill="#109cec" fill-rule="evenodd"></path><path id="path4" d="" stroke="none" fill="#109cec" fill-rule="evenodd"></path><path id="path5" d="" stroke="none" fill="#109cec" fill-rule="evenodd"></path><path id="path6" d="" stroke="none" fill="#109cec" fill-rule="evenodd"></path><path id="path7" d="" stroke="none" fill="#109cec" fill-rule="evenodd"></path><path id="path8" d="" stroke="none" fill="#109cec" fill-rule="evenodd"></path></g></svg>