<svg id="svg" version="1.1" xmlns="http://www.w3.org/2000/svg" xmlns:xlink="http://www.w3.org/1999/xlink" width="400" height="400" viewBox="0, 0, 400,400"><g id="svgg"><path id="path0" d="M161.200 139.269 C 133.810 188.756,111.340 229.415,111.267 229.623 C 111.184 229.858,128.123 230.000,156.167 230.000 L 201.200 230.000 201.200 231.394 C 201.200 232.160,199.035 258.845,196.389 290.694 C 193.743 322.542,191.628 348.984,191.689 349.453 C 191.759 349.987,210.419 316.670,241.649 260.253 L 291.498 170.200 246.667 170.098 C 222.010 170.042,201.694 169.854,201.521 169.681 C 201.347 169.507,203.448 142.382,206.190 109.403 C 208.931 76.424,211.135 49.408,211.087 49.367 C 211.039 49.327,188.590 89.783,161.200 139.269 " stroke="none" fill="#fbfbfb" fill-rule="evenodd"></path><path id="path1" d="" stroke="none" fill="#4eb8af" fill-rule="evenodd"></path><path id="path2" d="M182.400 0.602 C 74.395 9.317,-7.936 106.171,0.376 214.733 C 2.064 236.768,6.860 256.947,15.176 277.000 C 48.116 356.427,128.733 405.884,215.000 399.588 C 324.762 391.578,408.021 294.927,399.624 185.267 C 391.063 73.475,294.685 -8.458,182.400 0.602 M206.579 108.207 C 203.847 140.983,201.609 168.205,201.606 168.700 L 201.600 169.600 246.833 169.600 C 272.195 169.600,292.008 169.752,291.933 169.947 C 291.061 172.216,191.368 351.430,191.281 350.885 C 191.174 350.213,200.485 236.154,200.978 232.102 L 201.184 230.403 155.864 230.302 L 110.544 230.200 160.253 140.400 C 214.671 42.095,211.223 48.290,211.413 48.479 C 211.487 48.553,209.312 75.431,206.579 108.207 " stroke="none" fill="#049c8c" fill-rule="evenodd"></path><path id="path3" d="M224.131 169.900 C 236.633 169.959,256.973 169.959,269.331 169.900 C 281.689 169.841,271.460 169.793,246.600 169.793 C 221.740 169.793,211.629 169.841,224.131 169.900 M110.800 230.100 C 110.800 230.265,131.185 230.357,156.100 230.305 C 181.015 230.252,194.110 230.162,185.200 230.105 C 142.541 229.831,110.800 229.828,110.800 230.100 " stroke="none" fill="#99d5cf" fill-rule="evenodd"></path><path id="path4" d="" stroke="none" fill="#3cb0a4" fill-rule="evenodd"></path><path id="path5" d="" stroke="none" fill="#2cac9c" fill-rule="evenodd"></path><path id="path6" d="" stroke="none" fill="#15a094" fill-rule="evenodd"></path><path id="path7" d="" stroke="none" fill="#24a498" fill-rule="evenodd"></path><path id="path8" d="" stroke="none" fill="#0c9c94" fill-rule="evenodd"></path></g></svg>